<svg width="105" height="37" viewBox="0 0 105 37" fill="none" xmlns="http://www.w3.org/2000/svg">
<path d="M53.6045 13.885C51.6187 13.885 50.2553 15.4262 50.0478 17.3231H57.1908C56.9537 15.3965 55.7385 13.885 53.6045 13.885ZM71.1212 14.2999C68.7204 14.2999 67.5941 16.5228 67.5941 18.7161C67.5941 20.8798 68.6611 23.3694 71.1212 23.3694C73.4626 23.3694 74.6186 20.9391 74.6186 18.8643C74.5593 16.76 73.433 14.2999 71.1212 14.2999ZM36.1174 13.885C34.1316 13.885 32.7682 15.4262 32.5607 17.3231H39.7037C39.437 15.3965 38.2218 13.885 36.1174 13.885ZM99.7229 7.57185C97.4703 7.57185 95.6623 8.84631 94.8324 10.9803L94.2693 12.4623L93.7358 10.9803C92.9652 8.87595 91.0979 7.54221 88.8453 7.54221C88.5489 7.54221 88.2822 7.57187 87.9858 7.63113V5.61568C87.9858 2.56285 85.7925 0.310303 82.8879 0.310303C79.9832 0.310303 77.7899 2.59249 77.7899 5.61568V9.52806C76.1005 8.10538 74.0258 7.36441 71.7732 7.36441C71.2693 7.36441 70.7655 7.39406 70.2913 7.48293V5.64535C70.2913 2.59252 68.1276 0.339942 65.2823 0.339942C62.4369 0.339942 60.2733 2.62216 60.2733 5.64535V9.94301C58.3467 8.28322 55.9756 7.39405 53.397 7.39405C50.3442 7.39405 47.5285 8.66851 45.513 10.9804C45.187 11.336 44.8906 11.7213 44.6238 12.1659C44.3571 11.7806 44.0607 11.3953 43.7347 11.01C41.6599 8.66851 38.8146 7.39405 35.7914 7.39405C33.5092 7.39405 31.3752 8.10538 29.5968 9.43914C28.7076 8.16466 27.2257 7.39405 25.4177 7.39405C23.1059 7.39405 21.1497 8.96491 20.5273 11.2768C19.4306 7.77935 16.7038 7.39405 15.5479 7.39405C14.392 7.39405 11.6652 7.77935 10.5685 11.2768C9.97576 8.96491 8.04922 7.39405 5.67809 7.39405C2.83274 7.39405 0.550537 9.43915 0.550537 12.0474C0.550537 13.2033 0.817285 14.1221 1.17295 15.1298L5.05567 26.1259C6.35979 29.7715 8.99767 30.305 10.4796 30.305C12.7618 30.305 14.5698 29.1195 15.5183 27.0447C16.4371 29.1491 18.2451 30.3347 20.5569 30.3347C22.0389 30.3347 24.6767 29.8012 25.9809 26.1259L26.4254 24.8515C28.3223 28.2303 31.8494 30.3347 36.1471 30.3347C39.2592 30.3347 43.379 29.0009 45.2759 26.5705C47.2913 28.912 50.3145 30.3347 53.8119 30.3347C56.1831 30.3347 59.1766 29.5641 61.281 28.0821C62.1702 29.3566 63.6225 30.1272 65.3119 30.1272C66.3196 30.1272 67.2088 29.8901 67.9498 29.4455C69.0761 30.0087 70.3209 30.305 71.625 30.305C74.174 30.305 76.5451 29.3566 78.3531 27.5486C79.183 29.238 80.8428 30.305 82.8582 30.305C85.0219 30.305 86.8002 29.0009 87.5412 27.104C87.5412 27.104 86.8002 31.2239 86.8002 31.9945C86.8002 34.6916 89.0232 36.7367 91.9574 36.7367C94.0322 36.7367 95.8105 35.403 96.67 33.18L104.169 14.5371C104.465 13.8554 104.613 13.1144 104.613 12.2845C104.673 9.49842 102.094 7.57188 99.7229 7.57188V7.57185ZM27.2553 14.1517L23.343 25.1775C22.8688 26.5112 22.0685 27.4893 20.5865 27.4893C19.1935 27.4893 18.3636 26.7187 17.9487 25.3849L15.6072 18.0344H15.5775L13.2361 25.3849C12.8211 26.7187 11.9912 27.4893 10.5982 27.4893C9.08659 27.4893 8.31597 26.4816 7.84174 25.1775L3.95903 14.211C3.633 13.2922 3.4848 12.6994 3.4848 12.0473C3.4848 11.01 4.43325 10.2097 5.76701 10.2097C6.89329 10.2097 7.66391 10.9211 7.93066 12.0177L10.5685 20.7612H10.6278L13.2953 12.2252C13.651 10.9803 14.3031 10.2097 15.6072 10.2097C16.9113 10.2097 17.5634 10.9507 17.919 12.2252L20.5865 20.7612H20.6458L23.2837 12.0177C23.5208 10.9211 24.3507 10.2097 25.4474 10.2097C26.7811 10.2097 27.7296 11.01 27.7296 12.4327C27.6999 12.9365 27.4628 13.4404 27.2553 14.1517H27.2553ZM36.5916 23.6362C38.9035 23.6362 40.4744 21.7986 41.6896 21.7986C42.638 21.7986 43.5272 22.747 43.5272 23.7251C43.5272 25.6517 39.5555 27.5189 36.2063 27.5189C31.1381 27.5189 27.8185 23.8437 27.8185 18.9236C27.8185 14.3888 31.1381 10.269 35.8507 10.269C40.7115 10.269 43.9125 14.6852 43.9125 18.4494C43.9125 19.7831 43.3197 20.4648 41.9563 20.4648H32.3829C32.6793 22.5989 34.5169 23.6362 36.5916 23.6362ZM59.5916 20.4056H50.0181C50.3145 22.5989 52.1522 23.6066 54.2565 23.6066C56.5684 23.6066 58.1393 21.7689 59.3545 21.7689C60.3029 21.7689 61.1921 22.7174 61.1921 23.6955C61.1921 25.6221 57.2204 27.4893 53.8712 27.4893C48.8029 27.4893 45.4834 23.8141 45.4834 18.894C45.4834 14.3592 48.8029 10.2393 53.5156 10.2393C58.3764 10.2393 61.5774 14.6556 61.5774 18.4197C61.5477 19.7535 60.9253 20.4056 59.5916 20.4056ZM71.6843 27.5189C70.1431 27.5189 68.424 26.8372 67.5941 25.4739C67.3274 26.6594 66.5864 27.3411 65.3712 27.3411C64.0671 27.3411 63.1483 26.3334 63.1483 24.8514V5.67495C63.1483 4.16336 64.0078 3.18527 65.3415 3.18527C66.6457 3.18527 67.5348 4.193 67.5348 5.67495V11.7806C68.8093 10.7432 70.2616 10.2097 71.8325 10.2097C76.634 10.2097 79.0941 14.7148 79.0941 19.1014C79.0644 23.2805 76.1894 27.5189 71.6843 27.5189ZM85.1997 24.9996C85.1997 26.5112 84.2513 27.4893 82.9471 27.4893C81.643 27.4893 80.6946 26.4816 80.6946 24.9996V5.61568C80.6946 4.10409 81.643 3.12599 82.9471 3.12599C84.2513 3.12599 85.1997 4.13373 85.1997 5.61568V24.9996ZM101.649 13.47L94.1804 32.1723C93.8247 33.0911 93.1133 33.9506 92.076 33.9506C90.5348 33.9506 89.7345 33.0022 89.7345 32.0241C89.7345 31.6091 89.8531 31.1349 90.0013 30.7199L91.9574 25.8591L87.0077 13.4997C86.8891 13.1736 86.8002 12.8179 86.8002 12.3437C86.8002 11.2174 87.9858 10.4172 88.9046 10.4172C90.0013 10.4172 90.7719 11.01 91.1275 12.0177L94.21 20.4352L97.5296 12.0177C97.8852 11.01 98.6855 10.4172 99.7525 10.4172C100.671 10.4172 101.857 11.2174 101.857 12.3437C101.887 12.7883 101.798 13.1143 101.649 13.47Z" fill="#0099D6"/>
</svg>
